<?xml version="1.0" encoding="UTF-8" standalone="no"?>
<!DOCTYPE svg PUBLIC "-//W3C//DTD SVG 1.1//EN" "http://www.w3.org/Graphics/SVG/1.1/DTD/svg11.dtd">
<svg width="100%" height="100%" viewBox="0 0 35434 13288" version="1.1" xmlns="http://www.w3.org/2000/svg" xmlns:xlink="http://www.w3.org/1999/xlink" xml:space="preserve" xmlns:serif="http://www.serif.com/" style="fill-rule:evenodd;clip-rule:evenodd;stroke-linejoin:round;stroke-miterlimit:2;">
    <g transform="matrix(1,0,0,1,0,-26576.462426)">
        <g transform="matrix(4.285714,0,0,4.5,36445.444319,0)">
            <g transform="matrix(0.233333,0,0,0.125,-16826.703675,5905.880539)">
                <rect x="35669" y="0" width="35433.071" height="23622.047" style="fill:none;"/>
            </g>
        </g>
        <g transform="matrix(4.285714,0,0,4.5,36445.444319,0)">
            <g id="Primarna-verzija" serif:id="Primarna verzija" transform="matrix(2.032683,0,0,1.91653,4424.758579,4108.605512)">
                <g transform="matrix(1,0,0,1,224.954539,-4649.83165)">
                    <g transform="matrix(1.062075,0,0,1.072803,-8707.602077,-932.553935)">
                        <path d="M4585.386,6741.557L4466.467,6915.354L4397.338,6915.354L4572.003,6676.143L4636.473,6676.143L4666.245,6915.354L4601.086,6915.354L4585.386,6741.557ZM4092.499,6730.125L4108.895,6676.143L4209.402,6676.143C4214.378,6676.143 4245.77,6676.143 4270.372,6688.442C4288.367,6697.438 4300.194,6710.961 4306.404,6723.12C4310.615,6731.366 4317.38,6749.636 4314.42,6776.595C4311.842,6800.068 4304.71,6820.214 4297.552,6833.836C4288.694,6850.693 4276.106,6866.259 4262.981,6877.584C4250.472,6888.378 4233.226,6898.9 4214.257,6905.612C4199.267,6910.916 4178.076,6915.354 4154.641,6915.354L4036.229,6915.354L4052.638,6861.344L4162.57,6861.349C4182.974,6861.349 4197.65,6855.312 4205.407,6850.754C4216.738,6844.096 4227.232,6833.819 4234.378,6821.875C4240.497,6811.648 4246.028,6797.119 4247.834,6780.696C4248.074,6778.505 4249.599,6764.635 4244.39,6753.359C4241.475,6747.048 4235.761,6740.389 4227.109,6736.104C4215.037,6730.125 4198.709,6730.125 4196.19,6730.125L4092.499,6730.125ZM3599.865,6789.261L3561.332,6915.354L3501.134,6915.354L3574.038,6676.143L3627.267,6676.143L3666.132,6814.695L3786.624,6676.143L3842.498,6676.143L3770.372,6915.354L3709.843,6915.354L3747.682,6789.352L3659.209,6891.769L3630.434,6891.769L3599.865,6789.261ZM3909.069,6819.312L3895.852,6863.058L4017.23,6863.058L4000.875,6915.354L3815.318,6915.354L3888.083,6676.143L4069.261,6676.143L4053.247,6728.416L3936.528,6728.416L3924.348,6768.736L4027.306,6768.736L4012.136,6819.312L3909.069,6819.312ZM4308.077,6915.354L4380.621,6676.143L4446.083,6676.143L4373.567,6915.354L4308.077,6915.354Z"/>
                    </g>
                    <g transform="matrix(1.062075,0,0,1.072803,-8707.602077,-932.553935)">
                        <path d="M4872.822,6770.962L4783.045,6915.354L4712.924,6915.354L4710.233,6676.143L4775.034,6676.143L4775.963,6829.331L4870.912,6676.143L4931.415,6676.143L4931.162,6831.04L5026.633,6676.143L5091.434,6676.143L4944.125,6915.354L4873.673,6915.354L4872.822,6770.962ZM5039.347,6915.354L5111.561,6676.143L5177.023,6676.143L5104.837,6915.354L5039.347,6915.354ZM5253.804,6784.121L5214.282,6915.354L5150.114,6915.354L5222.277,6676.143L5276.168,6676.143L5338.618,6806.994L5377.998,6676.143L5442.137,6676.143L5370.07,6915.354L5316.156,6915.354L5253.804,6784.121Z"/>
                    </g>
                </g>
                <g transform="matrix(1.199213,0,0,1.063353,-9914.302695,-5518.229392)">
                    <path d="M3776.242,6819.814L3750.976,6915.752L3680.401,6916.097L3708.715,6808.584L3637.991,6893.631L3599.809,6893.631L3574.237,6784.97L3539.751,6915.918L3469.168,6916.162L3532.562,6675.277L3603.132,6675.249L3635.463,6806.976L3736.963,6675.277L3765.712,6675.198L3776.242,6819.814Z"/>
                </g>
                <g transform="matrix(1.197959,0,0,1.062241,-9908.922346,-5510.672428)">
                    <path d="M3784.785,6675.198L3848.482,6675.465L3858.037,6800.557L3940.165,6675.249L4001.724,6675.249L4010.623,6823.454L4090.267,6675.198L4166.509,6675.277L4032.533,6916.162L3955.083,6916.162L3947.952,6781.3L3859.882,6916.162L3798.872,6916.162L3784.785,6675.198ZM3308.598,6829.56L3384.687,6540.635C3388.333,6525.371 3400.531,6514.775 3414.454,6514.776L4115.172,6514.841C4169.047,6514.847 4219.917,6543.038 4253.079,6591.268C4286.236,6639.49 4297.996,6702.37 4284.961,6761.738L4284.955,6761.765C4284.91,6761.97 4284.863,6762.175 4284.815,6762.379L4209.575,7050.525C4205.96,7065.812 4193.769,7076.447 4179.834,7076.469L3786.823,7076.48L3850.495,6996.212L4152.547,6996.195L4217.486,6749.609C4225.564,6712.465 4217.553,6673.158 4196.814,6642.997C4176.022,6612.758 4144.127,6595.082 4110.348,6595.078L3440.801,6595.013L3375.864,6841.667C3367.787,6878.812 3375.176,6918.12 3395.917,6948.281C3416.712,6978.52 3453.145,6996.193 3486.924,6996.193L3714.479,6996.193L3764.284,7076.48L3482.456,7076.48C3428.579,7076.48 3378.189,7048.261 3345.023,7000.033C3311.862,6951.811 3295.564,6888.93 3308.598,6829.56Z"/>
                </g>
            </g>
        </g>
    </g>
</svg>
